<svg id="Layer_1" data-name="Layer 1" xmlns="http://www.w3.org/2000/svg" viewBox="0 0 379 48" width="379" height="48">
  <defs>
    <style>
      .cls-1 {
        fill: #fff;
      }

      .cls-2, .cls-3 {
        fill: #669940;
      }

      .cls-3 {
        fill-rule: evenodd;
      }
    </style>
  </defs>
  <title>casp-logo</title>
  <path class="cls-1" d="M370.5938,9.5011a4.7244,4.7244,0,0,1,1.561-1.5307,3.8762,3.8762,0,0,1,1.9877-.525,3.5105,3.5105,0,0,1,2.8412,1.1515,5.0457,5.0457,0,0,1,.9768,3.3477v6.5916h-3.4852V12.8915c.007-.0828.01-.1716.0131-.2606.0034-.093.0074-.221.0074-.3866a3.14,3.14,0,0,0-.337-1.666,1.2083,1.2083,0,0,0-1.0924-.5188,1.7174,1.7174,0,0,0-1.5224.8123,4.3811,4.3811,0,0,0-.5541,2.3462v5.3182h-3.4853V12.8915a5.3553,5.3553,0,0,0-.31-2.3132,1.1669,1.1669,0,0,0-1.1-.5188,1.7308,1.7308,0,0,0-1.5348.8152,4.2358,4.2358,0,0,0-.5407,2.3371v5.3244h-3.4864V7.7029h3.4864V9.2872a4.4667,4.4667,0,0,1,1.4647-1.38,3.6846,3.6846,0,0,1,1.8221-.462,3.6472,3.6472,0,0,1,1.9807.5414,3.4136,3.4136,0,0,1,1.3072,1.5143M358.299,8.04v2.6337a12.83,12.83,0,0,0-2.1447-.7,8.8973,8.8973,0,0,0-1.9512-.2308,3.3192,3.3192,0,0,0-1.4659.2471.8031.8031,0,0,0-.4783.76.7136.7136,0,0,0,.3635.64,3.4739,3.4739,0,0,0,1.3035.3267l.6079.0888a7.3492,7.3492,0,0,1,3.5814,1.11,3.0107,3.0107,0,0,1,.9167,2.4259,2.9355,2.9355,0,0,1-1.2772,2.6006,6.7961,6.7961,0,0,1-3.8123.8711,15.1553,15.1553,0,0,1-2.2181-.1685,18.9827,18.9827,0,0,1-2.3567-.5043V15.5057a9.9926,9.9926,0,0,0,2.1251.7567,9.7926,9.7926,0,0,0,2.209.2541,3.27,3.27,0,0,0,1.5318-.2813.9026.9026,0,0,0,.5116-.8352.768.768,0,0,0-.3533-.6893,3.7314,3.7314,0,0,0-1.41-.3536l-.61-.08a6.3475,6.3475,0,0,1-3.2354-1.0727,2.9387,2.9387,0,0,1-.9273-2.3765,2.9076,2.9076,0,0,1,1.1784-2.5509,6.3059,6.3059,0,0,1,3.6136-.8321,14.9253,14.9253,0,0,1,2.0073.1448A21.7853,21.7853,0,0,1,358.299,8.04ZM344.13,3.4848h3.4659v2.832H344.13Zm0,4.2181h3.4659V18.5362H344.13Zm-4.6068-3.07v3.07h3.565v2.4755h-3.565v4.5944a1.3275,1.3275,0,0,0,.3008,1.02,1.8555,1.8555,0,0,0,1.1877.2677h1.7787v2.4755h-2.9664a4.0274,4.0274,0,0,1-2.9087-.855,4.03,4.03,0,0,1-.8579-2.9084V10.1784h-1.7229V7.7029h1.7229v-3.07ZM322.6011,14.321V7.7029h3.4856V8.786q0,.8807-.0094,2.2109c-.0074.888-.01,1.4789-.01,1.7758a17.9037,17.9037,0,0,0,.0693,1.8813,2.077,2.077,0,0,0,.2315.8392,1.4658,1.4658,0,0,0,.5539.5208,1.65,1.65,0,0,0,.79.1852,2.0019,2.0019,0,0,0,1.6992-.8322,3.8088,3.8088,0,0,0,.617-2.3143v-5.35h3.4659V18.5362h-3.4659v-1.565a5.3649,5.3649,0,0,1-1.6569,1.3932,4.1639,4.1639,0,0,1-1.9308.4485,3.5535,3.5535,0,0,1-2.8579-1.1482A5.0194,5.0194,0,0,1,322.6011,14.321Zm-10.1088-1.0925h3.9549L314.476,7.4848Zm4.8912,2.6729h-5.8191l-.9179,2.6348h-3.7429l5.347-14.4379h4.4372l5.3471,14.4379h-3.7427ZM301.165,3.4848V5.7615h-1.9173a1.5224,1.5224,0,0,0-1.02.2646,1.2087,1.2087,0,0,0-.29.9241v.7527h2.951v2.4755h-2.951v8.3578h-3.4658V10.1784h-1.7229V7.7029h1.7229V6.95a3.2645,3.2645,0,0,1,.9871-2.6171,4.6152,4.6152,0,0,1,3.0564-.8483ZM286.6593,7.4454a6.04,6.04,0,0,1,4.3669,1.508,5.5165,5.5165,0,0,1,1.5713,4.1758,5.5168,5.5168,0,0,1-1.5713,4.1758,7.1013,7.1013,0,0,1-8.75,0,5.4962,5.4962,0,0,1-1.5815-4.1758,5.4959,5.4959,0,0,1,1.5815-4.1758A6.0871,6.0871,0,0,1,286.6593,7.4454Zm0,2.4755a2.0424,2.0424,0,0,0-1.756.8247,4,4,0,0,0-.6035,2.3836,3.9982,3.9982,0,0,0,.6035,2.3834,2.042,2.042,0,0,0,1.756.8248,2.0091,2.0091,0,0,0,1.7335-.8248,4.03,4.03,0,0,0,.6006-2.3834,4.032,4.032,0,0,0-.6006-2.3836A2.01,2.01,0,0,0,286.6593,9.9209ZM268.8987,3.4848h3.4659V18.5362h-3.4659Zm-5.7128,0h3.4659v2.832h-3.4659Zm0,4.2181h3.4659V18.5362h-3.4659Zm-1.91.3369v2.832a5.5754,5.5754,0,0,0-1.4191-.7164,4.6917,4.6917,0,0,0-1.475-.2345,2.9708,2.9708,0,0,0-2.2585.8446,3.2939,3.2939,0,0,0-.8084,2.3637,3.2957,3.2957,0,0,0,.8084,2.364,2.9724,2.9724,0,0,0,2.2585.8442,4.8789,4.8789,0,0,0,1.5443-.2406,4.507,4.507,0,0,0,1.35-.71v2.8318a9.6831,9.6831,0,0,1-3.3272.5943,6.5715,6.5715,0,0,1-4.5842-1.5016,5.367,5.367,0,0,1-1.6537-4.1821,5.3656,5.3656,0,0,1,1.6537-4.1818,6.5716,6.5716,0,0,1,4.5842-1.502,9.44,9.44,0,0,1,1.6776.1489A9.958,9.958,0,0,1,261.2759,8.04Zm-10.8806,3.9048v6.5916h-3.4867V13.4889q0-1.4014-.062-1.9307a2.0028,2.0028,0,0,0-.2181-.7825,1.3943,1.3943,0,0,0-.5509-.5281,1.64,1.64,0,0,0-.7928-.1881,1.9962,1.9962,0,0,0-1.6992.835,3.8217,3.8217,0,0,0-.618,2.3173v5.3244h-3.4659V7.7029h3.4659V9.2872a5.3169,5.3169,0,0,1,1.6642-1.3934,4.211,4.211,0,0,1,1.9442-.4484,3.5181,3.5181,0,0,1,2.8486,1.1515A5.063,5.063,0,0,1,250.3953,11.9446ZM226.3624,14.321V7.7029h3.4856V8.786q0,.8807-.01,2.2109c-.0062.888-.01,1.4789-.01,1.7758a17.9037,17.9037,0,0,0,.0693,1.8813,2.095,2.095,0,0,0,.2315.8392,1.4608,1.4608,0,0,0,.555.5208,1.6422,1.6422,0,0,0,.7887.1852,2.002,2.002,0,0,0,1.6992-.8322,3.8088,3.8088,0,0,0,.617-2.3143v-5.35h3.4669V18.5362H233.789v-1.565a5.3649,5.3649,0,0,1-1.6569,1.3932,4.1639,4.1639,0,0,1-1.9308.4485,3.5535,3.5535,0,0,1-2.8579-1.1482A5.0194,5.0194,0,0,1,226.3624,14.321Zm-7.257-6.8756a6.0411,6.0411,0,0,1,4.3673,1.508,5.5174,5.5174,0,0,1,1.5709,4.1758,5.5177,5.5177,0,0,1-1.5709,4.1758,7.102,7.102,0,0,1-8.7509,0,5.4965,5.4965,0,0,1-1.5814-4.1758,5.4962,5.4962,0,0,1,1.5814-4.1758A6.0877,6.0877,0,0,1,219.1054,7.4454Zm0,2.4755a2.0424,2.0424,0,0,0-1.756.8247,4.0022,4.0022,0,0,0-.6035,2.3836,4,4,0,0,0,.6035,2.3834,2.042,2.042,0,0,0,1.756.8248,2.0091,2.0091,0,0,0,1.7335-.8248,4.03,4.03,0,0,0,.6006-2.3834,4.032,4.032,0,0,0-.6006-2.3836A2.01,2.01,0,0,0,219.1054,9.9209ZM212.1026,17.74a9.3022,9.3022,0,0,1-2.1353.8021,9.708,9.708,0,0,1-2.32.2707,7.9175,7.9175,0,0,1-5.7139-2.0164,7.202,7.202,0,0,1-2.1094-5.466,7.212,7.212,0,0,1,2.1094-5.4729,7.9178,7.9178,0,0,1,5.7139-2.0163,9.7694,9.7694,0,0,1,2.32.27,9.3613,9.3613,0,0,1,2.1353.8032V7.9012a8.0563,8.0563,0,0,0-2.04-1.0367,6.7427,6.7427,0,0,0-2.1188-.33,3.9893,3.9893,0,0,0-3.1363,1.2761,5.09,5.09,0,0,0-1.142,3.52,5.0772,5.0772,0,0,0,1.142,3.5126,3.9923,3.9923,0,0,0,3.1363,1.2762,6.737,6.737,0,0,0,2.1188-.33,8.0563,8.0563,0,0,0,2.04-1.0367Zm-23.6065-5.8a2.225,2.225,0,0,0-.5735-1.5938,1.9864,1.9864,0,0,0-1.506-.6038,2.3367,2.3367,0,0,0-1.6332.5678,2.6026,2.6026,0,0,0-.7825,1.63Zm3.565,1.1523V14.08h-8.1a2.5576,2.5576,0,0,0,.8813,1.8254,3.2786,3.2786,0,0,0,2.11.6109,8.2778,8.2778,0,0,0,2.2378-.3236,11.53,11.53,0,0,0,2.3566-.9841v2.674a15.3177,15.3177,0,0,1-2.4559.6957,13.0912,13.0912,0,0,1-2.4558.2344,6.5177,6.5177,0,0,1-4.5677-1.4914,5.4052,5.4052,0,0,1-1.6311-4.1923,5.4632,5.4632,0,0,1,1.6011-4.1656,6.1317,6.1317,0,0,1,4.4063-1.5182,5.5163,5.5163,0,0,1,4.0872,1.538A5.5679,5.5679,0,0,1,192.0611,13.0929ZM179.12,11.9446v6.5916h-3.4863V13.5085q0-1.42-.062-1.95a2.0073,2.0073,0,0,0-.2184-.7825,1.3955,1.3955,0,0,0-.5506-.5281,1.64,1.64,0,0,0-.7931-.1881,1.996,1.996,0,0,0-1.6991.835,3.8285,3.8285,0,0,0-.6171,2.3173v5.3244h-3.4665V3.4848h3.4665V9.2872a5.32,5.32,0,0,1,1.6632-1.3934,4.2144,4.2144,0,0,1,1.9443-.4484A3.5176,3.5176,0,0,1,178.15,8.5969,5.0618,5.0618,0,0,1,179.12,11.9446ZM154.23,4.0983h13.3088V6.91h-4.793V18.5362h-3.7231V6.91H154.23Z"/>
  <path class="cls-2" d="M355.0691,27.4705v2.6337a12.8581,12.8581,0,0,0-2.1448-.7,8.9089,8.9089,0,0,0-1.9516-.23,3.31,3.31,0,0,0-1.4643.247.8029.8029,0,0,0-.48.76.7133.7133,0,0,0,.364.64,3.4739,3.4739,0,0,0,1.3035.3267l.6074.0888a7.3562,7.3562,0,0,1,3.5818,1.11,3.0115,3.0115,0,0,1,.9179,2.4258,2.9348,2.9348,0,0,1-1.2788,2.6006,6.7931,6.7931,0,0,1-3.8119.8715,15.183,15.183,0,0,1-2.2181-.1685,18.9477,18.9477,0,0,1-2.3566-.5043V34.9364a9.9509,9.9509,0,0,0,2.1262.7567,9.7756,9.7756,0,0,0,2.2078.2541,3.2679,3.2679,0,0,0,1.5319-.2813.9024.9024,0,0,0,.5115-.835.7677.7677,0,0,0-.3536-.69,3.7346,3.7346,0,0,0-1.41-.3532l-.61-.08a6.3435,6.3435,0,0,1-3.2351-1.0727,2.939,2.939,0,0,1-.9273-2.3765,2.9077,2.9077,0,0,1,1.1785-2.5509,6.3068,6.3068,0,0,1,3.6143-.8321,14.978,14.978,0,0,1,2.0066.1449,21.8865,21.8865,0,0,1,2.29.45m-9.105,2.6139a4.3841,4.3841,0,0,0-.9014-.3131,4.0079,4.0079,0,0,0-.9042-.1022,2.5225,2.5225,0,0,0-2.05.8549,3.72,3.72,0,0,0-.7191,2.4517v4.9912h-3.4657V27.1336h3.4657v1.782a4.4182,4.4182,0,0,1,1.5275-1.5506,4.1388,4.1388,0,0,1,2.0734-.4889c.1159,0,.241.0033.3763.0135s.33.0292.587.0619Zm-13.1466,1.2869a2.2265,2.2265,0,0,0-.5736-1.5938,1.9867,1.9867,0,0,0-1.5052-.6035,2.339,2.339,0,0,0-1.6339.5675,2.6041,2.6041,0,0,0-.7825,1.63Zm3.5651,1.1526v.987h-8.1a2.5534,2.5534,0,0,0,.8806,1.8254,3.2718,3.2718,0,0,0,2.11.6109,8.2621,8.2621,0,0,0,2.2378-.3236,11.5194,11.5194,0,0,0,2.3566-.9837v2.6738a15.1547,15.1547,0,0,1-2.4558.6955,13.0937,13.0937,0,0,1-2.4559.2348,6.5183,6.5183,0,0,1-4.5677-1.4913,5.407,5.407,0,0,1-1.631-4.1928,5.4662,5.4662,0,0,1,1.601-4.1651,6.1327,6.1327,0,0,1,4.4063-1.5187,5.2823,5.2823,0,0,1,5.618,5.6478ZM317.556,35.7291a1.964,1.964,0,0,0,1.6975-.8125,4.0079,4.0079,0,0,0,.5837-2.3567,4.0084,4.0084,0,0,0-.5837-2.3564,2.1712,2.1712,0,0,0-3.3871,0,4.0045,4.0045,0,0,0-.5842,2.3564,4.0041,4.0041,0,0,0,.5842,2.3567A1.9532,1.9532,0,0,0,317.556,35.7291Zm2.2812-7.0109V22.9155h3.4856V37.9669h-3.4856V36.4021a4.6934,4.6934,0,0,1-1.5741,1.4,4.3228,4.3228,0,0,1-1.9939.4424,4.0376,4.0376,0,0,1-3.2846-1.5908,6.2958,6.2958,0,0,1-1.2868-4.0933,6.2961,6.2961,0,0,1,1.2868-4.093,4.0376,4.0376,0,0,1,3.2846-1.5908,4.2418,4.2418,0,0,1,1.9865.4489A4.7118,4.7118,0,0,1,319.8372,28.7182Zm-13.08-5.8027h3.4655v2.832H306.757Zm0,4.2181h3.4655V37.9669H306.757Zm-13.1983,0h3.4625L299.718,34.62l2.6863-7.4865h3.4732l-4.2648,10.8333h-3.8Zm-6.0092-.2575a6.0393,6.0393,0,0,1,4.3668,1.5082,5.5165,5.5165,0,0,1,1.5713,4.1756,5.5154,5.5154,0,0,1-1.5713,4.1758,7.1,7.1,0,0,1-8.75,0,5.4943,5.4943,0,0,1-1.5814-4.1758,5.4955,5.4955,0,0,1,1.5814-4.1756A6.0833,6.0833,0,0,1,287.55,26.8761Zm0,2.4755a2.04,2.04,0,0,0-1.7561.8252,3.9974,3.9974,0,0,0-.6049,2.3831,4,4,0,0,0,.6049,2.3838,2.04,2.04,0,0,0,1.7561.8248,2.0064,2.0064,0,0,0,1.7323-.8248,4.0323,4.0323,0,0,0,.6-2.3838,4.03,4.03,0,0,0-.6-2.3831A2.0062,2.0062,0,0,0,287.55,29.3516Zm-5.8018.7328a4.376,4.376,0,0,0-.9014-.3131,4.0152,4.0152,0,0,0-.9043-.1022,2.5211,2.5211,0,0,0-2.05.8549,3.7186,3.7186,0,0,0-.7194,2.4517v4.9912h-3.467V27.1336h3.467v1.782A4.408,4.408,0,0,1,278.7,27.365a4.1361,4.1361,0,0,1,2.0727-.4889c.1156,0,.2417.0033.377.0135s.33.0292.5871.0619Zm-17.5962-3.8613v4.0405h2.0569a2.4211,2.4211,0,0,0,1.6733-.5284,2.1987,2.1987,0,0,0,0-2.9911,2.4506,2.4506,0,0,0-1.6733-.521ZM260.4282,23.53h6.1758a6.465,6.465,0,0,1,4.2316,1.2247,4.2681,4.2681,0,0,1,1.4761,3.4824,4.28,4.28,0,0,1-1.4761,3.4945,6.4656,6.4656,0,0,1-4.2316,1.225h-2.4525v5.0108h-3.7233ZM248.27,31.3713a2.2211,2.2211,0,0,0-.5746-1.5938,1.9856,1.9856,0,0,0-1.5048-.6035,2.3418,2.3418,0,0,0-1.634.5675,2.6072,2.6072,0,0,0-.7825,1.63Zm3.5651,1.1526v.987h-8.1a2.5539,2.5539,0,0,0,.8818,1.8254,3.2654,3.2654,0,0,0,2.1086.6109,8.256,8.256,0,0,0,2.2378-.3236,11.5194,11.5194,0,0,0,2.3566-.9837v2.6738a15.1262,15.1262,0,0,1-2.4558.6955,13.08,13.08,0,0,1-2.4551.2348,6.5209,6.5209,0,0,1-4.5685-1.4913,5.407,5.407,0,0,1-1.631-4.1928,5.4647,5.4647,0,0,1,1.601-4.1651,6.134,6.134,0,0,1,4.4063-1.5187,5.2832,5.2832,0,0,1,5.6187,5.6478Zm-12.7236-5.0534v2.832a5.5826,5.5826,0,0,0-1.4192-.7161,4.7038,4.7038,0,0,0-1.476-.2348,2.9712,2.9712,0,0,0-2.2575.8446A3.2953,3.2953,0,0,0,233.15,32.56a3.295,3.295,0,0,0,.8083,2.364,2.97,2.97,0,0,0,2.2575.8446,4.8756,4.8756,0,0,0,1.5453-.241,4.4942,4.4942,0,0,0,1.35-.71V37.65a9.6753,9.6753,0,0,1-1.6507.4455,9.5316,9.5316,0,0,1-1.6766.1489,6.5761,6.5761,0,0,1-4.5853-1.502,5.37,5.37,0,0,1-1.6525-4.1821,5.37,5.37,0,0,1,1.6525-4.1818,6.5761,6.5761,0,0,1,4.5853-1.502,9.4474,9.4474,0,0,1,1.6766.1491A9.9729,9.9729,0,0,1,239.1112,27.4705Zm-14.4666-4.555h3.4659v2.832h-3.4659Zm0,4.2181h3.4659V37.9669h-3.4659Zm-13.1983,0h3.4625l2.6969,7.4865,2.6863-7.4865h3.4731L219.5,37.9669h-3.8Zm.7176,2.9508a4.3862,4.3862,0,0,0-.9014-.3131,4.0081,4.0081,0,0,0-.9043-.1022,2.5223,2.5223,0,0,0-2.05.8549,3.7208,3.7208,0,0,0-.719,2.4517v4.9912h-3.467V27.1336h3.467v1.782a4.4163,4.4163,0,0,1,1.5274-1.5506,4.1353,4.1353,0,0,1,2.0733-.4889c.115,0,.241.0033.3763.0135s.33.0292.5871.0619Zm-13.1466,1.2869a2.2269,2.2269,0,0,0-.5735-1.5938,1.9877,1.9877,0,0,0-1.5064-.6035,2.338,2.338,0,0,0-1.6328.5675,2.6031,2.6031,0,0,0-.7825,1.63Zm3.5647,1.1526v.987h-8.0993a2.5534,2.5534,0,0,0,.8806,1.8254,3.2717,3.2717,0,0,0,2.11.6109,8.2609,8.2609,0,0,0,2.2377-.3236,11.5171,11.5171,0,0,0,2.3566-.9837v2.6738a15.1462,15.1462,0,0,1-2.4558.6955,13.0918,13.0918,0,0,1-2.4558.2348,6.5184,6.5184,0,0,1-4.5678-1.4913,5.4073,5.4073,0,0,1-1.631-4.1928,5.4619,5.4619,0,0,1,1.6012-4.1651,6.1313,6.1313,0,0,1,4.4062-1.5187,5.2818,5.2818,0,0,1,5.6176,5.6478Zm-13.7986-8.54v3.05a13.3029,13.3029,0,0,0-2.3205-.799,9.2162,9.2162,0,0,0-2.14-.27,4.1091,4.1091,0,0,0-1.973.3661,1.2211,1.2211,0,0,0-.6377,1.1388,1.07,1.07,0,0,0,.4331.9047,4.22,4.22,0,0,0,1.564.5537l1.5876.3205a6.8768,6.8768,0,0,1,3.4231,1.4689,3.7369,3.7369,0,0,1,1.013,2.8051,4.3337,4.3337,0,0,1-1.4158,3.5555,6.746,6.746,0,0,1-4.33,1.1651,14.8012,14.8012,0,0,1-2.7567-.26,17.2709,17.2709,0,0,1-2.7658-.7722V34.0649a14.043,14.043,0,0,0,2.6768,1.1125,8.9911,8.9911,0,0,0,2.4923.373,3.5546,3.5546,0,0,0,1.8677-.405,1.2961,1.2961,0,0,0,.6469-1.1662,1.2823,1.2823,0,0,0-.4379-1.0429,4.4959,4.4959,0,0,0-1.7594-.66l-1.4429-.3193a6.1594,6.1594,0,0,1-3.1617-1.4794,3.7128,3.7128,0,0,1-1.0006-2.7325,4.0688,4.0688,0,0,1,1.3933-3.3139,6.09,6.09,0,0,1,4-1.1588,17.3486,17.3486,0,0,1,2.4423.178A22.6416,22.6416,0,0,1,188.7834,23.9842Z"/>
  <path class="cls-1" d="M113.1685,2.2836h18.7981q8.3958,0,12.8811,3.7269,4.4916,3.7227,4.4909,10.6011,0,6.9164-4.4909,10.64t-12.8811,3.7274h-7.4645v15.252H113.1685Zm11.3336,8.1985V22.78h6.2594a7.3588,7.3588,0,0,0,5.0936-1.6073,5.8086,5.8086,0,0,0,1.7892-4.5612,5.7649,5.7649,0,0,0-1.7892-4.542,7.4525,7.4525,0,0,0-5.0936-1.5875Z"/>
  <path class="cls-1" d="M108.0508,3.6706v9.283a40.2078,40.2078,0,0,0-7.0637-2.431,27.8743,27.8743,0,0,0-6.51-.8239,12.5021,12.5021,0,0,0-6.0075,1.1153,3.7157,3.7157,0,0,0-1.94,3.4658,3.25,3.25,0,0,0,1.317,2.7533,12.791,12.791,0,0,0,4.7629,1.6878l4.8321.9748q7.3243,1.478,10.4188,4.4705,3.09,3.0143,3.084,8.5408,0,7.279-4.31,10.8209-4.3258,3.541-13.1815,3.5471c-5.987.2451-11.1167-.1954-15.4559-1.9471a22.2338,22.2338,0,0,1-8.48-6.4125c-5.4564-6.4675-8.53-18.2084-11.1993-26.1236-3.047,8.8808-4.7247,13.2594-6.13,16.9926C47.2777,42.6152,37.791,47.075,23.8516,47.075q-10.9877,0-17.3923-6.14Q.0385,34.8019.04,24.2973q0-10.5195,6.42-16.6588Q12.8651,1.505,23.8516,1.5a29.6206,29.6206,0,0,1,7.0639.8237,28.3878,28.3878,0,0,1,6.5,2.4416v9.0926a24.4713,24.4713,0,0,0-6.21-3.1545,20.5385,20.5385,0,0,0-6.45-1.0047q-6.0749,0-9.5454,3.8883-3.4809,3.8889-3.4761,10.71,0,6.8125,3.4761,10.6909,3.4665,3.8882,9.5454,3.8874c6.9427,0,13.597-2.84,16.6588-9.3945L51.5465,2.2836,65.05,2.4385c3.7747,10.123,7.39,24.5546,14.19,32.5237,3.4918,2.8456,8.2255,3.9134,13.1375,3.9134A10.79,10.79,0,0,0,98.0642,37.64a3.9472,3.9472,0,0,0,1.9691-3.5473,3.899,3.899,0,0,0-1.3365-3.1741c-.894-.7538-2.6822-1.4172-5.3554-2.0095l-4.39-.9748q-6.5865-1.401-9.6249-4.5014a11.3172,11.3172,0,0,1-3.044-8.3193q0-6.5556,4.2389-10.0881Q84.7565,1.5,92.6986,1.5a52.784,52.784,0,0,1,7.4349.5426,68.0854,68.0854,0,0,1,7.9173,1.628"/>
  <path class="cls-3" d="M57.9506,30.7977a6.6942,6.6942,0,1,1-6.6936,6.6947,6.6949,6.6949,0,0,1,6.6936-6.6947"/>
  <g>
    <path class="cls-1" d="M139.2954,42.1611h-1.5879v-.7324h4.21v.7324H140.313v4.0606h-1.0176Z"/>
    <path class="cls-1" d="M147.2505,44.2666c-.0332-.6191-.0742-1.3652-.0664-2.0127H147.16c-.1822.583-.4136,1.23-.6617,1.835l-.81,2.0761h-.7856l-.7447-2.0478c-.2148-.6113-.4135-1.2656-.562-1.8633h-.0166c-.0249.626-.0581,1.3867-.1,2.041l-.124,1.9268h-.9507l.3721-4.793h1.34l.7276,1.9277c.1987.5616.372,1.13.5126,1.6631h.0249c.149-.5185.3394-1.1084.5542-1.6709l.7691-1.92h1.3232l.3228,4.793h-.9927Z"/>
  </g>
</svg>
